<svg width="1384" height="1201" viewBox="0 0 1384 1201" fill="none" xmlns="http://www.w3.org/2000/svg">
<path d="M800.234 198.784L1119.56 678.74C1177.04 765.14 1115.1 880.75 1011.33 880.75H372.675C268.899 880.75 206.957 765.14 264.441 678.74L583.766 198.784C635.209 121.465 748.791 121.465 800.234 198.784Z" fill="white" stroke="#FF3D77" stroke-width="40"/>
<path d="M559.827 592H528.521L576.223 453.818H613.872L661.507 592H630.2L595.587 485.395H594.508L559.827 592ZM557.871 537.685H631.82V560.491H557.871V537.685ZM678.139 592V453.818H732.656C743.136 453.818 752.065 455.82 759.442 459.823C766.819 463.781 772.442 469.292 776.31 476.354C780.223 483.371 782.18 491.467 782.18 500.643C782.18 509.82 780.201 517.916 776.243 524.933C772.284 531.95 766.549 537.415 759.037 541.329C751.57 545.242 742.529 547.199 731.914 547.199H697.166V523.786H727.191C732.813 523.786 737.446 522.819 741.09 520.885C744.778 518.906 747.522 516.184 749.321 512.721C751.166 509.212 752.088 505.187 752.088 500.643C752.088 496.055 751.166 492.052 749.321 488.634C747.522 485.17 744.778 482.494 741.09 480.604C737.401 478.67 732.723 477.703 727.056 477.703H707.354V592H678.139ZM830.372 453.818V592H801.156V453.818H830.372Z" fill="#3D3D3D"/>
<path d="M571.753 743.065C566.284 743.065 561.561 741.929 557.584 739.656C553.63 737.36 550.588 734.116 548.457 729.926C546.327 725.712 545.261 720.752 545.261 715.047C545.261 709.436 546.327 704.512 548.457 700.274C550.612 696.013 553.618 692.698 557.477 690.331C561.336 687.94 565.87 686.744 571.078 686.744C574.44 686.744 577.612 687.289 580.595 688.378C583.602 689.443 586.253 691.1 588.55 693.349C590.87 695.598 592.693 698.463 594.018 701.943C595.344 705.4 596.007 709.519 596.007 714.301V718.243H551.298V709.578H583.685C583.661 707.116 583.128 704.926 582.087 703.009C581.045 701.067 579.589 699.54 577.719 698.428C575.872 697.315 573.718 696.759 571.256 696.759C568.628 696.759 566.32 697.398 564.331 698.676C562.342 699.931 560.792 701.588 559.679 703.648C558.59 705.684 558.034 707.921 558.01 710.359V717.923C558.01 721.096 558.59 723.818 559.75 726.091C560.91 728.34 562.532 730.068 564.615 731.276C566.698 732.459 569.137 733.051 571.93 733.051C573.801 733.051 575.493 732.791 577.009 732.27C578.524 731.725 579.838 730.932 580.95 729.891C582.063 728.849 582.903 727.559 583.472 726.02L595.474 727.369C594.717 730.542 593.273 733.312 591.142 735.679C589.035 738.023 586.336 739.846 583.045 741.148C579.755 742.426 575.991 743.065 571.753 743.065ZM619.738 710.04V742H606.882V687.455H619.169V696.723H619.809C621.063 693.669 623.064 691.242 625.81 689.443C628.58 687.644 632.001 686.744 636.073 686.744C639.837 686.744 643.116 687.549 645.909 689.159C648.727 690.769 650.905 693.101 652.444 696.155C654.006 699.209 654.775 702.914 654.752 707.27V742H641.897V709.259C641.897 705.613 640.95 702.76 639.056 700.7C637.185 698.641 634.593 697.611 631.279 697.611C629.03 697.611 627.029 698.108 625.277 699.102C623.549 700.073 622.188 701.482 621.194 703.328C620.223 705.175 619.738 707.412 619.738 710.04ZM695.057 687.455V697.398H663.701V687.455H695.057ZM671.442 674.386H684.297V725.594C684.297 727.322 684.558 728.648 685.078 729.571C685.623 730.471 686.333 731.086 687.209 731.418C688.085 731.749 689.056 731.915 690.121 731.915C690.926 731.915 691.66 731.856 692.323 731.737C693.009 731.619 693.53 731.512 693.885 731.418L696.051 741.467C695.365 741.704 694.382 741.964 693.104 742.249C691.849 742.533 690.31 742.698 688.488 742.746C685.268 742.84 682.368 742.355 679.787 741.29C677.207 740.201 675.159 738.52 673.644 736.247C672.152 733.974 671.418 731.134 671.442 727.724V674.386ZM705.808 742V687.455H718.663V742H705.808ZM712.271 679.713C710.235 679.713 708.483 679.038 707.016 677.689C705.548 676.316 704.814 674.67 704.814 672.753C704.814 670.812 705.548 669.166 707.016 667.817C708.483 666.444 710.235 665.757 712.271 665.757C714.331 665.757 716.083 666.444 717.527 667.817C718.995 669.166 719.729 670.812 719.729 672.753C719.729 674.67 718.995 676.316 717.527 677.689C716.083 679.038 714.331 679.713 712.271 679.713ZM759.12 687.455V697.398H727.763V687.455H759.12ZM735.505 674.386H748.36V725.594C748.36 727.322 748.62 728.648 749.141 729.571C749.685 730.471 750.396 731.086 751.272 731.418C752.148 731.749 753.118 731.915 754.184 731.915C754.989 731.915 755.722 731.856 756.385 731.737C757.072 731.619 757.593 731.512 757.948 731.418L760.114 741.467C759.427 741.704 758.445 741.964 757.167 742.249C755.912 742.533 754.373 742.698 752.55 742.746C749.33 742.84 746.43 742.355 743.85 741.29C741.269 740.201 739.221 738.52 737.706 736.247C736.215 733.974 735.481 731.134 735.505 727.724V674.386ZM777.861 762.455C776.109 762.455 774.487 762.313 772.996 762.028C771.528 761.768 770.356 761.46 769.48 761.105L772.463 751.091C774.333 751.635 776.002 751.896 777.47 751.872C778.938 751.848 780.228 751.387 781.341 750.487C782.477 749.611 783.436 748.143 784.217 746.084L785.318 743.136L765.538 687.455H779.175L791.746 728.648H792.314L804.92 687.455H818.592L796.753 748.605C795.735 751.493 794.385 753.967 792.705 756.027C791.024 758.11 788.964 759.696 786.526 760.786C784.111 761.898 781.223 762.455 777.861 762.455Z" fill="#FF3D77"/>
</svg>
